<?xml version="1.0" standalone="no"?>
<!DOCTYPE svg PUBLIC "-//W3C//DTD SVG 20010904//EN"
 "http://www.w3.org/TR/2001/REC-SVG-20010904/DTD/svg10.dtd">
<svg version="1.0" xmlns="http://www.w3.org/2000/svg"
 width="309.000000pt" height="124.000000pt" viewBox="0 0 309.000000 124.000000"
 preserveAspectRatio="xMidYMid meet">

<g transform="translate(0.000000,124.000000) scale(0.100000,-0.100000)"
fill="#000000" stroke="none">
<path d="M0 620 l0 -620 1545 0 1545 0 0 620 0 620 -1545 0 -1545 0 0 -620z
m741 454 c19 -9 38 -33 52 -62 19 -42 21 -65 22 -207 0 -151 -1 -163 -25 -210
-30 -60 -56 -75 -133 -75 -53 0 -62 3 -92 33 -45 45 -58 114 -53 286 4 153 19
200 72 232 38 23 116 25 157 3z m318 3 c36 -18 62 -68 68 -132 l6 -56 -49 3
-49 3 -6 43 c-11 85 -61 94 -87 16 -14 -41 -12 -292 2 -326 9 -20 37 -31 59
-22 15 5 19 16 32 97 6 36 7 37 52 37 l46 0 -5 -63 c-9 -111 -51 -157 -143
-157 -58 0 -100 21 -120 61 -37 71 -42 336 -8 422 24 59 65 87 126 87 29 0 63
-6 76 -13z m1449 -3 c29 -20 31 -74 3 -74 -11 0 -21 9 -24 21 -3 12 -12 19
-19 17 -20 -7 -18 -163 2 -163 9 0 16 11 18 29 2 18 0 26 -7 21 -7 -4 -11 4
-11 19 0 23 4 26 35 26 l35 0 0 -70 0 -70 -54 0 c-66 0 -76 11 -83 89 -12 133
36 204 105 155z m-2158 -224 l0 -230 81 0 80 0 -3 -47 -3 -48 -127 -3 -128 -3
0 281 0 280 50 0 50 0 0 -230z m1014 213 c3 -10 29 -130 58 -268 l53 -250 3
268 2 267 50 0 50 0 0 -230 0 -230 80 0 80 0 0 -50 0 -50 -179 0 -180 1 -5 30
c-19 99 -11 89 -76 89 l-58 0 -8 -57 -9 -58 -47 -1 c-34 -1 -48 2 -48 12 0 7
25 131 55 276 30 144 55 264 55 265 0 2 27 3 59 3 48 0 61 -3 65 -17z m516 2
c9 -10 11 -32 7 -65 -3 -27 -2 -52 4 -55 14 -10 11 -68 -7 -93 -12 -18 -25
-22 -68 -22 l-54 0 0 125 0 125 53 0 c35 0 57 -5 65 -15z m80 -91 c0 -95 2
-105 18 -102 15 3 17 17 20 106 l3 103 47 -3 c45 -3 47 -4 56 -43 l10 -40 11
40 c12 39 12 40 63 43 l52 3 0 -125 0 -126 -25 0 -24 0 -3 118 -3 117 -22 -64
c-13 -36 -23 -89 -23 -118 0 -50 -1 -53 -25 -53 -24 0 -25 3 -25 54 0 33 -9
78 -25 117 l-24 64 -1 -99 c0 -112 -11 -136 -63 -136 -57 0 -67 20 -67 142 l0
108 25 0 25 0 0 -106z m366 31 l22 -70 1 73 c1 65 3 72 21 72 19 0 20 -7 20
-126 l0 -125 -27 3 c-26 3 -30 9 -48 78 l-20 75 -3 -77 c-3 -70 -5 -78 -22
-78 -19 0 -20 8 -20 126 l0 125 27 -3 c24 -3 29 -11 49 -73z m-454 -242 c9
-10 18 -25 21 -33 3 -8 6 0 6 18 1 32 2 32 49 32 26 0 52 -4 59 -8 20 -13 30
-54 23 -88 -4 -18 -4 -52 1 -76 14 -75 12 -88 -16 -88 -22 0 -25 4 -25 39 0
49 -8 71 -26 71 -10 0 -14 -15 -14 -55 0 -52 -1 -55 -25 -55 -25 0 -25 1 -25
83 0 72 -2 79 -13 57 -7 -14 -26 -29 -45 -35 -30 -9 -32 -12 -32 -57 0 -44 -2
-48 -25 -48 l-25 0 2 123 c0 67 3 125 5 130 9 15 90 7 105 -10z m290 0 c12
-11 18 -31 19 -62 l1 -46 12 46 c14 60 31 79 71 79 36 0 50 -12 60 -53 6 -24
5 -27 -19 -27 -16 0 -26 6 -26 14 0 21 -21 31 -31 15 -11 -18 -11 -140 0 -158
5 -7 14 -10 20 -7 14 9 15 56 1 56 -5 0 -10 9 -10 20 0 16 7 20 35 20 l35 0 0
-69 0 -69 -48 0 c-26 -1 -54 3 -61 7 -7 5 -18 32 -26 62 l-13 54 -1 -42 c-2
-74 -60 -106 -112 -64 -21 17 -24 27 -24 103 0 102 17 138 67 138 17 0 40 -7
50 -17z m292 1 c18 -17 22 -89 6 -99 -7 -4 -7 -12 0 -25 5 -10 10 -36 11 -57
l1 -38 13 49 c8 27 19 80 26 118 12 65 13 68 40 68 21 0 30 -6 34 -22 3 -13
14 -61 24 -108 l19 -85 1 108 1 107 34 0 34 0 12 -72 c6 -40 12 -77 14 -82 1
-5 8 28 15 73 l13 81 34 0 35 0 -3 -127 c-3 -118 -5 -128 -22 -128 -17 0 -19
8 -18 100 l1 100 -17 -100 c-15 -88 -19 -100 -37 -100 -17 0 -22 10 -31 65 -9
53 -12 59 -14 30 -2 -19 -2 -49 -1 -67 2 -32 1 -32 -46 -30 -44 2 -48 4 -51
30 -3 21 -9 27 -28 27 -19 0 -26 -6 -31 -30 -5 -28 -8 -30 -49 -28 -42 1 -44
3 -44 32 0 46 -11 76 -26 76 -9 0 -15 -13 -16 -37 0 -21 -2 -44 -2 -52 -1 -8
-11 -16 -24 -17 -22 -4 -22 -3 -22 126 l0 130 49 0 c32 0 55 -6 65 -16z m412
-291 c-10 -10 -2636 -11 -2642 -1 -3 4 592 8 1322 8 730 0 1324 -3 1320 -7z
m-1906 -74 c0 -5 -8 -9 -19 -9 -27 0 -44 -26 -43 -67 2 -54 42 -91 42 -38 0
14 -4 25 -10 25 -5 0 -10 5 -10 10 0 6 9 10 20 10 17 0 20 -7 20 -45 0 -41 -2
-45 -25 -45 -52 0 -80 68 -55 135 14 36 80 56 80 24z m160 -33 c14 -42 -2
-111 -27 -120 -25 -10 -52 3 -58 27 -14 61 -9 103 15 127 27 27 54 13 70 -34z
m212 27 c8 -11 9 -22 2 -42 -6 -15 -7 -36 -3 -46 11 -28 11 -65 -1 -65 -5 0
-12 16 -16 35 -3 20 -12 35 -20 35 -9 0 -14 -12 -14 -35 0 -19 -4 -35 -10 -35
-15 0 -13 167 3 173 18 6 45 -3 59 -20z m998 6 c0 -5 -11 -9 -25 -9 -31 0 -49
-39 -39 -84 10 -48 44 -64 44 -21 0 14 -4 25 -10 25 -5 0 -10 5 -10 10 0 6 9
10 20 10 17 0 20 -7 20 -45 0 -41 -2 -45 -25 -45 -38 0 -65 33 -65 81 0 49 14
77 43 88 24 9 47 4 47 -10z m480 -10 c6 -11 7 -27 1 -43 -6 -15 -6 -37 0 -58
12 -43 11 -50 -3 -46 -7 3 -15 17 -18 33 -8 44 -30 44 -30 0 0 -25 -4 -35 -12
-33 -9 3 -14 31 -16 79 -2 58 1 76 13 85 20 15 53 7 65 -17z m-2486 -1 c8 -13
8 -23 -1 -38 -7 -10 -9 -21 -4 -24 36 -23 3 -86 -44 -86 -25 0 -25 1 -25 86
l0 85 31 -3 c18 -2 37 -11 43 -20z m56 -47 c0 -69 13 -98 31 -70 5 8 9 42 9
77 0 34 4 62 10 62 15 0 13 -143 -2 -158 -19 -19 -45 -14 -62 10 -22 31 -22
148 -1 148 12 0 15 -14 15 -69z m110 -16 c0 -50 -4 -85 -10 -85 -6 0 -10 35
-10 85 0 50 4 85 10 85 6 0 10 -35 10 -85z m50 10 c0 -73 1 -75 25 -75 14 0
25 -5 25 -11 0 -6 -16 -9 -37 -7 l-38 3 -2 83 c-1 65 2 82 13 82 11 0 14 -17
14 -75z m134 59 c10 -10 16 -33 16 -65 0 -56 -24 -89 -65 -89 -25 0 -25 1 -25
85 l0 85 29 0 c16 0 37 -7 45 -16z m66 -69 c0 -69 -3 -85 -15 -85 -12 0 -15
16 -15 85 0 69 3 85 15 85 12 0 15 -16 15 -85z m66 33 l19 -53 3 53 c5 85 22
59 22 -34 0 -102 -12 -107 -46 -18 l-23 59 0 -62 c-1 -35 -5 -63 -11 -63 -6 0
-10 35 -10 85 0 102 16 113 46 33z m366 -20 c2 -57 6 -73 18 -73 12 0 16 16
18 73 2 39 7 72 12 72 15 0 12 -144 -2 -158 -19 -19 -45 -14 -62 10 -22 30
-22 148 -1 148 11 0 15 -17 17 -72z m298 62 c0 -5 -9 -10 -20 -10 -15 0 -20
-7 -20 -25 0 -18 5 -25 20 -25 11 0 20 -4 20 -10 0 -5 -9 -10 -20 -10 -17 0
-20 -7 -20 -40 0 -22 -4 -40 -10 -40 -6 0 -10 35 -10 85 l0 85 30 0 c17 0 30
-4 30 -10z m47 -55 c-1 -40 4 -70 11 -77 20 -20 32 9 32 80 0 34 4 62 10 62
17 0 12 -136 -6 -154 -24 -24 -53 -20 -64 10 -16 41 -13 144 4 144 11 0 14
-15 13 -65z m163 55 c0 -5 -7 -10 -15 -10 -12 0 -15 -15 -15 -76 0 -56 -3 -75
-12 -72 -8 3 -14 29 -16 73 -2 50 -8 72 -20 81 -15 12 -10 13 31 14 26 0 47
-4 47 -10z m42 -62 c2 -57 6 -73 18 -73 12 0 16 16 18 73 2 58 6 72 19 72 13
0 15 -11 11 -70 -6 -76 -20 -103 -52 -98 -29 4 -46 44 -46 111 0 43 3 57 15
57 11 0 15 -17 17 -72z m156 60 c14 -14 16 -54 2 -63 -6 -4 -6 -15 0 -31 13
-32 13 -64 0 -64 -5 0 -12 16 -16 35 -3 20 -12 35 -20 35 -9 0 -14 -12 -14
-35 0 -19 -4 -35 -10 -35 -6 0 -10 35 -10 85 l0 85 28 0 c15 0 33 -5 40 -12z
m102 2 c0 -5 -8 -10 -19 -10 -10 0 -21 -9 -24 -19 -6 -24 0 -31 25 -31 26 0
22 -18 -4 -22 -16 -2 -23 -10 -23 -28 0 -18 7 -26 23 -28 35 -5 25 -22 -13
-22 l-35 0 0 85 0 85 35 0 c19 0 35 -4 35 -10z m140 0 c0 -5 -7 -10 -15 -10
-12 0 -15 -15 -15 -76 0 -56 -3 -75 -12 -72 -8 3 -14 29 -16 73 -2 50 -8 72
-20 81 -15 12 -10 13 31 14 26 0 47 -4 47 -10z m97 -31 c13 -41 3 -107 -19
-120 -42 -27 -72 8 -71 84 1 56 17 79 52 75 20 -2 29 -12 38 -39z m203 31 c0
-5 -9 -10 -20 -10 -15 0 -20 -7 -20 -25 0 -18 5 -25 20 -25 11 0 20 -4 20 -10
0 -5 -9 -10 -20 -10 -16 0 -20 -7 -20 -30 0 -26 4 -30 26 -30 14 0 23 -4 19
-10 -3 -5 -22 -10 -41 -10 l-34 0 0 85 0 85 35 0 c19 0 35 -4 35 -10z m100 0
c0 -5 -7 -10 -15 -10 -12 0 -15 -15 -15 -76 0 -56 -3 -75 -12 -72 -9 3 -13 28
-14 72 -1 53 -5 69 -20 81 -17 13 -15 14 29 15 26 0 47 -4 47 -10z m40 -25 c0
-28 4 -35 20 -35 16 0 20 7 20 35 0 19 5 35 10 35 6 0 10 -35 10 -85 0 -50 -4
-85 -10 -85 -5 0 -10 18 -10 40 0 33 -3 40 -20 40 -17 0 -20 -7 -20 -40 0 -29
-4 -40 -15 -40 -12 0 -15 16 -15 85 0 69 3 85 15 85 10 0 15 -11 15 -35z m160
25 c0 -5 -11 -10 -25 -10 -20 0 -25 -5 -25 -25 0 -20 5 -25 26 -25 14 0 23 -4
19 -10 -3 -5 -15 -10 -26 -10 -14 0 -19 -7 -19 -30 0 -25 4 -30 25 -30 14 0
25 -4 25 -10 0 -5 -16 -10 -35 -10 l-35 0 0 85 0 85 35 0 c19 0 35 -4 35 -10z"/>
<path d="M644 1002 c-24 -15 -33 -53 -40 -153 -7 -112 6 -213 30 -238 9 -8 24
-11 40 -7 38 9 48 64 44 227 -3 118 -6 140 -22 158 -20 22 -34 26 -52 13z"/>
<path d="M1297 940 c-3 -8 -10 -44 -16 -80 -7 -36 -14 -77 -17 -92 -5 -27 -4
-28 35 -28 26 0 41 4 40 13 -1 39 -37 199 -42 187z"/>
<path d="M1810 1010 c0 -25 4 -31 18 -28 11 2 17 12 17 28 0 16 -6 26 -17 28
-14 3 -18 -3 -18 -28z"/>
<path d="M1810 905 c0 -29 3 -36 18 -33 11 2 17 13 17 33 0 20 -6 31 -17 33
-15 3 -18 -4 -18 -33z"/>
<path d="M1810 705 c0 -29 3 -36 18 -33 11 2 17 13 17 33 0 20 -6 31 -17 33
-15 3 -18 -4 -18 -33z"/>
<path d="M1950 705 c0 -24 5 -35 14 -35 20 0 30 38 16 55 -20 24 -30 17 -30
-20z"/>
<path d="M2097 733 c-14 -13 -8 -150 7 -162 12 -10 17 -8 25 8 12 21 15 119 5
145 -6 16 -26 21 -37 9z"/>
<path d="M2390 705 c0 -24 5 -35 14 -35 20 0 30 38 16 55 -20 24 -30 17 -30
-20z"/>
<path d="M2546 685 c-11 -30 -7 -65 8 -65 11 0 13 9 9 38 -7 45 -9 48 -17 27z"/>
<path d="M1056 375 c-10 -28 -7 -80 7 -99 12 -16 14 -16 26 -3 18 23 11 111
-10 115 -9 2 -19 -4 -23 -13z"/>
<path d="M1280 365 c0 -26 24 -35 32 -12 7 18 -2 37 -18 37 -8 0 -14 -10 -14
-25z"/>
<path d="M2760 365 c0 -16 6 -25 15 -25 9 0 15 9 15 25 0 16 -6 25 -15 25 -9
0 -15 -9 -15 -25z"/>
<path d="M278 378 c-9 -23 2 -40 17 -28 8 6 11 18 8 26 -6 17 -19 18 -25 2z"/>
<path d="M280 301 c0 -12 0 -24 0 -28 0 -5 6 -8 13 -8 16 0 16 47 0 53 -8 2
-13 -5 -13 -17z"/>
<path d="M628 383 c-2 -5 -1 -35 2 -68 l5 -60 18 25 c19 28 22 62 7 91 -11 19
-26 25 -32 12z"/>
<path d="M1830 365 c0 -26 24 -35 32 -12 7 18 -2 37 -18 37 -8 0 -14 -10 -14
-25z"/>
<path d="M2156 374 c-10 -27 -7 -89 6 -102 19 -19 38 6 38 48 0 47 -8 70 -25
70 -7 0 -16 -7 -19 -16z"/>
</g>
</svg>
